<svg width="585" height="155" viewBox="0 0 585 155" fill="none" xmlns="http://www.w3.org/2000/svg">
<path fill-rule="evenodd" clip-rule="evenodd" d="M436.542 0.214418C421.092 1.89014 409.232 14.8456 408.227 31.1436C407.7 39.7 408.179 127.028 408.77 129.931C410.547 138.666 419.039 148.598 427.803 152.194C434.855 155.087 434.881 155.088 492.118 154.959L541.095 154.849L544.371 153.899C556.257 150.455 565.602 141.022 568.144 129.906C568.583 127.982 568.709 125.542 568.709 118.938V110.444L563.064 110.539L557.421 110.633L557.236 118.755C557.06 126.47 557.006 126.981 556.166 128.95C553.344 135.566 547.602 140.512 540.71 142.266C537.098 143.185 441.23 143.335 436.89 142.428C430.121 141.014 423.183 134.959 420.653 128.259L419.869 126.185L419.778 78.5663C419.677 25.6555 419.543 28.8937 422.029 23.7789C424.538 18.6173 430.521 13.7025 436.195 12.1409C439.35 11.2729 535.189 10.9128 539.172 11.7542C547.278 13.4671 553.779 19.2791 556.415 27.1693C556.969 28.83 557.073 30.7295 557.235 42.203L557.421 55.3362L562.896 55.4318L568.372 55.5265L568.735 54.5771C569.453 52.697 568.578 26.0775 567.699 23.0844C564.626 12.6151 555.262 3.82066 544.01 0.833742L541.095 0.060468L490.034 0.0056165C461.951 -0.0244651 437.88 0.0693187 436.542 0.214418ZM460.163 26.0819C458.451 26.3827 457.672 28.2717 458.798 29.3909C459.745 30.334 484.039 30.1969 484.997 29.2431C486.116 28.1301 485.878 26.9516 484.375 26.1642C483.641 25.7802 462.294 25.7077 460.163 26.0819ZM520.691 26.0341C519.69 26.1854 518.691 27.2825 518.691 28.2292C518.691 29.582 519.777 29.9341 523.952 29.9341C530.298 29.9341 534.24 31.4736 538.231 35.5098C540.586 37.8907 541.347 38.2357 542.681 37.5253C545.406 36.0743 540.119 30.1827 533.671 27.4869C530.48 26.1527 524.408 25.4732 520.691 26.0341ZM441.087 29.3174L437.406 32.1566L437.495 53.5959L437.584 75.0361L441.493 75.1334L445.4 75.2317V50.855C445.4 36.476 445.271 26.4783 445.084 26.4783C444.911 26.4783 443.112 27.7559 441.087 29.3174ZM499.673 32.9078L496.113 35.516V37.9093V40.3025H494.55H492.987V43.9318V47.5602H494.522H496.058L496.178 57.4968C496.317 68.7562 496.326 68.803 499.082 71.7342C501.32 74.1151 503.521 74.9078 508.097 74.9804L511.57 75.0361L511.669 71.3211L511.767 67.6051H508.78C503.425 67.6051 503.408 67.5679 503.408 56.2175V47.5602H507.588H511.768L511.669 44.0176L511.57 40.4751L510.181 40.4582C509.416 40.4494 507.584 40.4105 506.108 40.3715L503.426 40.3025L503.33 35.301L503.233 30.2995L499.673 32.9078ZM449.999 57.6693L450.089 75.0361L453.649 75.1343L457.209 75.2325V61.3968V47.5602H458.633C463.4 47.5602 463.603 48.1556 463.809 62.7673L463.983 75.0361L467.491 75.1334L471 75.2317L471.231 63.9015C471.655 43.0285 469.725 40.3335 454.341 40.3096L449.909 40.3025L449.999 57.6693ZM483.608 40.6166C470.54 41.4651 468.471 57.9604 481.064 60.9137C484.452 61.7091 485.693 62.6637 485.693 64.4784C485.693 67.068 484.794 67.483 478.554 67.7732L473.165 68.0245L473.263 71.5307L473.361 75.0361L479.093 74.9945C488.941 74.9238 492.969 72.1315 493.112 65.2773C493.232 59.5353 490.568 56.2714 484.473 54.6877C481.124 53.818 479.686 52.1511 480.274 49.8216C480.783 47.8052 481.447 47.5602 486.4 47.5602H490.927L490.828 44.0176L490.729 40.4751L488.818 40.4388C487.768 40.4184 485.423 40.4981 483.608 40.6166ZM513.983 40.6148C513.903 40.6909 514.655 42.2844 515.656 44.1556L517.475 47.5566L522.436 47.5584C527.947 47.5602 529.244 47.8787 530.415 49.5146C531.974 51.6928 531.896 51.7379 526.506 51.8131C517.587 51.9361 513.654 55.3424 513.655 62.9398C513.657 72.266 522.377 77.9638 528.981 72.9525C530.472 71.8218 531.196 72.1226 531.196 73.8753V75.2325L534.912 75.1343L538.628 75.0361L538.646 62.2488L538.663 49.4615L537.713 47.5345C535.741 43.5416 532.587 41.2271 528.306 40.6352C525.877 40.299 514.333 40.2822 513.983 40.6148ZM531.196 62.7673V66.9141H526.879C522.046 66.9141 521.422 66.6053 520.924 63.9643C520.24 60.3386 522.323 58.6196 527.402 58.6196H531.196V62.7673ZM548.8 70.9415C548.67 71.0707 548.563 72.0722 548.563 73.1675V75.1582L550.428 76.0076C555.613 78.369 557.035 81.0542 557.189 88.7737L557.305 94.5626H562.813C565.842 94.5626 568.394 94.444 568.484 94.2998C568.574 94.1547 568.7 88.8285 568.765 82.4627L568.883 70.8884L558.96 70.7973C553.502 70.7468 548.93 70.8114 548.8 70.9415ZM444.452 81.4594C439.81 82.9228 435.309 87.3041 433.807 91.8199C429.755 104.005 439.468 116.694 449.221 111.956L451.478 110.859L451.584 112.195C452.189 119.823 442.782 122.735 436.176 116.965C435.032 115.965 434.847 115.907 434.166 116.342C433.754 116.604 432.596 117.266 431.593 117.813C429.414 119 429.422 118.948 431.099 121.057C438.551 130.43 452.259 129.678 457.234 119.622C458.646 116.768 458.806 114.502 458.91 95.8588L458.994 80.7383L452.805 80.7578C447.642 80.7737 446.257 80.8905 444.452 81.4594ZM461.695 82.3619C462.063 83.2749 462.71 84.8383 463.133 85.8363L463.902 87.6509H469.077C474.764 87.6509 476.022 87.942 477.298 89.5558C478.89 91.5713 478.622 91.7084 472.754 91.8712C465.02 92.0871 462.56 93.5062 461.19 98.5413C458.467 108.551 466.931 116.549 475.082 111.666C477.443 110.251 478.051 110.31 478.051 111.958V113.131L481.396 113.375C483.4 113.521 484.873 113.487 485.071 113.291C485.271 113.091 485.356 108.296 485.286 101.084L485.172 89.2054L484.261 87.2749C481.774 81.9974 479.276 80.9436 468.931 80.8065L461.027 80.7021L461.695 82.3619ZM488.536 97.0452L488.645 113.398L492.205 113.51L495.766 113.62L495.767 102.104C495.769 88.4207 496.179 86.9874 499.718 88.326C501.76 89.0984 501.829 89.5036 502.018 101.978L502.191 113.398H505.666H509.139L509.312 101.741L509.486 90.0849L510.42 89.1559C511.667 87.9155 513.21 87.9155 514.457 89.1559L515.391 90.0849L515.495 101.633L515.599 113.18L519.086 113.289C521.004 113.349 522.637 113.333 522.715 113.254C523.2 112.767 522.822 89.0488 522.306 87.5412C520.013 80.8454 511.42 78.6061 506.317 83.3749L505.233 84.3888L503.947 83.2811C501.427 81.1144 500.675 80.9215 494.267 80.802L488.426 80.6923L488.536 97.0452ZM534.677 81.2719C528.147 83.0882 524.596 88.5038 524.596 96.6453C524.596 109.49 530.265 114.024 545.437 113.308C549.64 113.11 549.615 113.121 548.42 111.862C547.959 111.376 546.794 109.833 545.83 108.433L544.076 105.887L540.154 105.936C535.662 105.993 534.353 105.561 533.026 103.584C531.865 101.856 531.922 101.82 535.827 101.82H539.417L542.34 100.036C543.948 99.0536 546.474 97.5601 547.955 96.7152C551 94.9784 551.064 94.8156 550.168 91.0289C548.509 84.0128 541.254 79.4431 534.677 81.2719ZM451.572 95.8588L451.478 103.722L449.592 104.672C444.592 107.192 440.205 103.921 440.205 97.6734C440.205 92.2189 444.302 88.1154 449.835 88.0261L451.665 87.996L451.572 95.8588ZM540.087 88.6551C540.87 89.0081 541.873 89.8044 542.316 90.4237L543.121 91.5483L541.935 92.5188C538.293 95.4969 531.548 96.5152 532.066 94.0079C532.161 93.5531 532.318 92.794 532.416 92.3224C533.069 89.186 537.05 87.2829 540.087 88.6551ZM477.975 101.907L478.074 105.622H473.913C468.731 105.622 467.844 105.134 467.844 102.28C467.844 98.889 469.205 98.0007 474.23 98.1113L477.877 98.1918L477.975 101.907ZM474.695 126.686C473.647 127.131 473.358 128.284 474.035 129.313L474.594 130.161H489.12C502.752 130.161 503.683 130.122 504.222 129.528C504.986 128.687 504.951 127.542 504.142 126.978C503.35 126.427 475.945 126.154 474.695 126.686ZM519.108 127.119C518.493 127.729 518.6 128.935 519.326 129.588C519.875 130.083 520.968 130.161 527.434 130.161C535.491 130.161 536.058 130.032 536.058 128.215C536.058 126.789 535.571 126.704 527.375 126.704C521.732 126.704 519.407 126.821 519.108 127.119Z" fill="#483E3E"/>
<path d="M5.32 113V46.5H18.43V113H5.32ZM42.465 113H29.925V80.225C29.925 76.995 29.545 74.4933 28.785 72.72C28.025 70.9467 26.8217 69.395 25.175 68.065L35.625 60.75C37.9683 62.65 39.71 64.835 40.85 67.305C45.5367 62.8717 48.83 60.655 50.73 60.655C52.6933 60.655 55.6067 62.4283 59.47 65.975C63.3967 69.4583 65.36 72.91 65.36 76.33V94.665C65.36 97.895 65.74 100.397 66.5 102.17C67.26 103.943 68.4633 105.495 70.11 106.825L59.66 114.14C55.1 110.53 52.82 105.4 52.82 98.75V77.66C52.82 76.5833 52.25 75.475 51.11 74.335C49.97 73.1317 48.8933 72.53 47.88 72.53C46.93 72.53 45.125 73.86 42.465 76.52V113ZM108.293 97.61C108.293 99.5733 105.855 102.835 100.978 107.395C96.1017 111.892 92.46 114.14 90.0533 114.14C87.71 114.14 84.765 112.968 81.2183 110.625C77.735 108.282 75.1383 105.527 73.4283 102.36L83.2133 95.615C86.38 100.048 88.6917 102.265 90.1483 102.265C91.225 102.265 92.555 101.727 94.1383 100.65C95.7217 99.5733 96.5133 98.56 96.5133 97.61C96.5133 97.3567 95.7533 96.8183 94.2333 95.995C92.7133 95.1083 90.845 94.0317 88.6283 92.765C86.475 91.435 84.3217 89.9783 82.1683 88.395C80.015 86.7483 78.1783 84.7533 76.6583 82.41C75.1383 80.0667 74.3783 77.6917 74.3783 75.285C74.3783 72.8783 76.5317 69.8383 80.8383 66.165C85.145 62.4917 88.4383 60.655 90.7183 60.655C93.0617 60.655 95.975 61.8267 99.4583 64.17C103.005 66.5133 105.633 69.2683 107.343 72.435L97.5583 79.18C94.3917 74.7467 92.08 72.53 90.6233 72.53C89.8633 72.53 88.9133 72.9733 87.7733 73.86C86.6967 74.6833 86.1583 75.4433 86.1583 76.14C86.1583 76.8367 87.2983 77.9133 89.5783 79.37C91.9217 80.8267 94.455 82.3467 97.1783 83.93C99.965 85.45 102.498 87.4767 104.778 90.01C107.122 92.48 108.293 95.0133 108.293 97.61ZM128.93 71.77V92.765C128.93 95.7417 129.943 98.465 131.97 100.935C133.997 103.405 136.783 105.368 140.33 106.825L129.88 114.14C126.08 112.367 122.882 109.928 120.285 106.825C117.688 103.658 116.39 100.333 116.39 96.85V71.77H111.64V64.645L116.39 63.505C116.263 60.4017 115.883 57.9633 115.25 56.19C114.617 54.3533 113.413 52.58 111.64 50.87L122.09 43.555C126.65 47.165 128.93 52.295 128.93 58.945V61.795H139.57V71.77H128.93ZM181.636 61.795V100.745C182.016 102.962 183.504 104.925 186.101 106.635L177.551 113.95C176.727 113.38 175.714 112.367 174.511 110.91C173.307 109.453 172.294 107.965 171.471 106.445C166.214 111.575 162.541 114.14 160.451 114.14C158.931 114.14 156.461 112.462 153.041 109.105C149.684 105.748 147.594 103.025 146.771 100.935C145.947 98.845 145.536 94.3483 145.536 87.445C145.536 80.4783 145.947 75.95 146.771 73.86C147.594 71.77 149.684 69.0467 153.041 65.69C156.461 62.3333 158.931 60.655 160.451 60.655C162.667 60.655 166.246 62.935 171.186 67.495L172.326 61.795H181.636ZM168.431 76.33C167.987 75.5067 167.069 74.6833 165.676 73.86C164.346 72.9733 163.332 72.53 162.636 72.53C161.939 72.53 161.179 72.9417 160.356 73.765C159.596 74.5883 159.089 75.3483 158.836 76.045C158.012 77.185 157.601 80.985 157.601 87.445C157.601 93.8417 158.012 97.61 158.836 98.75C159.089 99.3833 159.596 100.143 160.356 101.03C161.179 101.853 161.939 102.265 162.636 102.265C163.332 102.265 164.346 101.853 165.676 101.03C167.069 100.143 167.956 99.3517 168.336 98.655C168.779 97.9583 169.032 94.2533 169.096 87.54C169.096 80.8267 168.874 77.09 168.431 76.33ZM202.98 75.285V85.355C202.98 90.5483 203.233 93.7467 203.74 94.95C204.247 96.09 205.102 97.325 206.305 98.655C207.572 99.9217 208.68 100.555 209.63 100.555C210.58 100.555 211.783 99.89 213.24 98.56C214.697 97.23 215.71 96.0267 216.28 94.95C216.66 93.8733 216.882 92.29 216.945 90.2H210.39V79.655H229.295V113H220.08L218.94 106.54C214.57 111.607 211.34 114.14 209.25 114.14C207.16 114.14 203.835 112.082 199.275 107.965C194.778 103.785 191.992 100.397 190.915 97.8C190.218 96.1533 189.87 92.005 189.87 85.355V75.285C189.87 67.3683 190.503 62.3017 191.77 60.085C193.037 57.8683 195.728 54.86 199.845 51.06C204.025 47.26 207.128 45.36 209.155 45.36C212.638 45.36 216.628 47.3867 221.125 51.44C225.622 55.4933 228.472 59.9267 229.675 64.74L219.13 72.055C218.117 68.635 216.502 65.4683 214.285 62.555C212.068 59.6417 210.517 58.185 209.63 58.185C208.047 58.185 206.242 59.7367 204.215 62.84C203.392 64.0433 202.98 68.1917 202.98 75.285ZM272.09 61.795V100.745C272.47 102.962 273.958 104.925 276.555 106.635L268.005 113.95C267.181 113.38 266.168 112.367 264.965 110.91C263.761 109.453 262.748 107.965 261.925 106.445C256.668 111.575 252.995 114.14 250.905 114.14C249.385 114.14 246.915 112.462 243.495 109.105C240.138 105.748 238.048 103.025 237.225 100.935C236.401 98.845 235.99 94.3483 235.99 87.445C235.99 80.4783 236.401 75.95 237.225 73.86C238.048 71.77 240.138 69.0467 243.495 65.69C246.915 62.3333 249.385 60.655 250.905 60.655C253.121 60.655 256.7 62.935 261.64 67.495L262.78 61.795H272.09ZM258.885 76.33C258.441 75.5067 257.523 74.6833 256.13 73.86C254.8 72.9733 253.786 72.53 253.09 72.53C252.393 72.53 251.633 72.9417 250.81 73.765C250.05 74.5883 249.543 75.3483 249.29 76.045C248.466 77.185 248.055 80.985 248.055 87.445C248.055 93.8417 248.466 97.61 249.29 98.75C249.543 99.3833 250.05 100.143 250.81 101.03C251.633 101.853 252.393 102.265 253.09 102.265C253.786 102.265 254.8 101.853 256.13 101.03C257.523 100.143 258.41 99.3517 258.79 98.655C259.233 97.9583 259.486 94.2533 259.55 87.54C259.55 80.8267 259.328 77.09 258.885 76.33ZM317.659 113H305.119V77.66C305.119 76.5833 304.549 75.475 303.409 74.335C302.269 73.1317 301.288 72.53 300.464 72.53C299.704 72.53 298.438 73.29 296.664 74.81V113H284.124V80.225C284.124 76.995 283.744 74.4933 282.984 72.72C282.224 70.9467 281.021 69.395 279.374 68.065L289.824 60.75C291.914 62.5233 293.466 64.3283 294.479 66.165C298.596 62.4917 301.446 60.655 303.029 60.655C303.979 60.655 305.531 61.3517 307.684 62.745C309.838 64.1383 311.801 65.8167 313.574 67.78C318.578 63.03 322.029 60.655 323.929 60.655C325.893 60.655 328.806 62.4283 332.669 65.975C336.596 69.4583 338.559 72.91 338.559 76.33V94.665C338.559 97.895 338.939 100.397 339.699 102.17C340.459 103.943 341.663 105.495 343.309 106.825L332.859 114.14C328.299 110.53 326.019 105.4 326.019 98.75V77.66C326.019 76.5833 325.449 75.475 324.309 74.335C323.169 73.1317 322.219 72.53 321.459 72.53C320.763 72.53 319.433 73.3217 317.469 74.905C317.596 75.5383 317.659 76.0133 317.659 76.33V113ZM383.126 87.255V90.675H360.136C360.136 94.475 360.611 97.4833 361.561 99.7C361.878 100.46 362.448 101.252 363.271 102.075C364.094 102.835 364.949 103.215 365.836 103.215C366.723 103.215 367.831 102.455 369.161 100.935C370.491 99.415 371.536 97.5783 372.296 95.425L382.081 102.36C380.371 105.527 377.743 108.282 374.196 110.625C370.713 112.968 367.894 114.14 365.741 114.14C363.588 114.14 360.453 112.462 356.336 109.105C352.283 105.748 349.813 103.152 348.926 101.315C348.039 99.415 347.596 94.7917 347.596 87.445C347.596 80.035 348.039 75.4117 348.926 73.575C349.813 71.675 352.283 69.0467 356.336 65.69C360.453 62.3333 363.461 60.655 365.361 60.655C367.261 60.655 370.238 62.3333 374.291 65.69C378.408 69.0467 380.909 71.675 381.796 73.575C382.683 75.4117 383.126 79.9717 383.126 87.255ZM369.921 75.38C369.478 74.4933 368.749 73.6383 367.736 72.815C366.786 71.9917 365.868 71.58 364.981 71.58C364.158 71.58 363.208 72.435 362.131 74.145C361.054 75.7917 360.389 78.2933 360.136 81.65H370.966C370.776 78.2933 370.428 76.2033 369.921 75.38Z" fill="#483E3E"/>
<path d="M5.32 113V46.5H18.43V113H5.32ZM42.465 113H29.925V80.225C29.925 76.995 29.545 74.4933 28.785 72.72C28.025 70.9467 26.8217 69.395 25.175 68.065L35.625 60.75C37.9683 62.65 39.71 64.835 40.85 67.305C45.5367 62.8717 48.83 60.655 50.73 60.655C52.6933 60.655 55.6067 62.4283 59.47 65.975C63.3967 69.4583 65.36 72.91 65.36 76.33V94.665C65.36 97.895 65.74 100.397 66.5 102.17C67.26 103.943 68.4633 105.495 70.11 106.825L59.66 114.14C55.1 110.53 52.82 105.4 52.82 98.75V77.66C52.82 76.5833 52.25 75.475 51.11 74.335C49.97 73.1317 48.8933 72.53 47.88 72.53C46.93 72.53 45.125 73.86 42.465 76.52V113ZM108.293 97.61C108.293 99.5733 105.855 102.835 100.978 107.395C96.1017 111.892 92.46 114.14 90.0533 114.14C87.71 114.14 84.765 112.968 81.2183 110.625C77.735 108.282 75.1383 105.527 73.4283 102.36L83.2133 95.615C86.38 100.048 88.6917 102.265 90.1483 102.265C91.225 102.265 92.555 101.727 94.1383 100.65C95.7217 99.5733 96.5133 98.56 96.5133 97.61C96.5133 97.3567 95.7533 96.8183 94.2333 95.995C92.7133 95.1083 90.845 94.0317 88.6283 92.765C86.475 91.435 84.3217 89.9783 82.1683 88.395C80.015 86.7483 78.1783 84.7533 76.6583 82.41C75.1383 80.0667 74.3783 77.6917 74.3783 75.285C74.3783 72.8783 76.5317 69.8383 80.8383 66.165C85.145 62.4917 88.4383 60.655 90.7183 60.655C93.0617 60.655 95.975 61.8267 99.4583 64.17C103.005 66.5133 105.633 69.2683 107.343 72.435L97.5583 79.18C94.3917 74.7467 92.08 72.53 90.6233 72.53C89.8633 72.53 88.9133 72.9733 87.7733 73.86C86.6967 74.6833 86.1583 75.4433 86.1583 76.14C86.1583 76.8367 87.2983 77.9133 89.5783 79.37C91.9217 80.8267 94.455 82.3467 97.1783 83.93C99.965 85.45 102.498 87.4767 104.778 90.01C107.122 92.48 108.293 95.0133 108.293 97.61ZM128.93 71.77V92.765C128.93 95.7417 129.943 98.465 131.97 100.935C133.997 103.405 136.783 105.368 140.33 106.825L129.88 114.14C126.08 112.367 122.882 109.928 120.285 106.825C117.688 103.658 116.39 100.333 116.39 96.85V71.77H111.64V64.645L116.39 63.505C116.263 60.4017 115.883 57.9633 115.25 56.19C114.617 54.3533 113.413 52.58 111.64 50.87L122.09 43.555C126.65 47.165 128.93 52.295 128.93 58.945V61.795H139.57V71.77H128.93ZM181.636 61.795V100.745C182.016 102.962 183.504 104.925 186.101 106.635L177.551 113.95C176.727 113.38 175.714 112.367 174.511 110.91C173.307 109.453 172.294 107.965 171.471 106.445C166.214 111.575 162.541 114.14 160.451 114.14C158.931 114.14 156.461 112.462 153.041 109.105C149.684 105.748 147.594 103.025 146.771 100.935C145.947 98.845 145.536 94.3483 145.536 87.445C145.536 80.4783 145.947 75.95 146.771 73.86C147.594 71.77 149.684 69.0467 153.041 65.69C156.461 62.3333 158.931 60.655 160.451 60.655C162.667 60.655 166.246 62.935 171.186 67.495L172.326 61.795H181.636ZM168.431 76.33C167.987 75.5067 167.069 74.6833 165.676 73.86C164.346 72.9733 163.332 72.53 162.636 72.53C161.939 72.53 161.179 72.9417 160.356 73.765C159.596 74.5883 159.089 75.3483 158.836 76.045C158.012 77.185 157.601 80.985 157.601 87.445C157.601 93.8417 158.012 97.61 158.836 98.75C159.089 99.3833 159.596 100.143 160.356 101.03C161.179 101.853 161.939 102.265 162.636 102.265C163.332 102.265 164.346 101.853 165.676 101.03C167.069 100.143 167.956 99.3517 168.336 98.655C168.779 97.9583 169.032 94.2533 169.096 87.54C169.096 80.8267 168.874 77.09 168.431 76.33ZM202.98 75.285V85.355C202.98 90.5483 203.233 93.7467 203.74 94.95C204.247 96.09 205.102 97.325 206.305 98.655C207.572 99.9217 208.68 100.555 209.63 100.555C210.58 100.555 211.783 99.89 213.24 98.56C214.697 97.23 215.71 96.0267 216.28 94.95C216.66 93.8733 216.882 92.29 216.945 90.2H210.39V79.655H229.295V113H220.08L218.94 106.54C214.57 111.607 211.34 114.14 209.25 114.14C207.16 114.14 203.835 112.082 199.275 107.965C194.778 103.785 191.992 100.397 190.915 97.8C190.218 96.1533 189.87 92.005 189.87 85.355V75.285C189.87 67.3683 190.503 62.3017 191.77 60.085C193.037 57.8683 195.728 54.86 199.845 51.06C204.025 47.26 207.128 45.36 209.155 45.36C212.638 45.36 216.628 47.3867 221.125 51.44C225.622 55.4933 228.472 59.9267 229.675 64.74L219.13 72.055C218.117 68.635 216.502 65.4683 214.285 62.555C212.068 59.6417 210.517 58.185 209.63 58.185C208.047 58.185 206.242 59.7367 204.215 62.84C203.392 64.0433 202.98 68.1917 202.98 75.285ZM272.09 61.795V100.745C272.47 102.962 273.958 104.925 276.555 106.635L268.005 113.95C267.181 113.38 266.168 112.367 264.965 110.91C263.761 109.453 262.748 107.965 261.925 106.445C256.668 111.575 252.995 114.14 250.905 114.14C249.385 114.14 246.915 112.462 243.495 109.105C240.138 105.748 238.048 103.025 237.225 100.935C236.401 98.845 235.99 94.3483 235.99 87.445C235.99 80.4783 236.401 75.95 237.225 73.86C238.048 71.77 240.138 69.0467 243.495 65.69C246.915 62.3333 249.385 60.655 250.905 60.655C253.121 60.655 256.7 62.935 261.64 67.495L262.78 61.795H272.09ZM258.885 76.33C258.441 75.5067 257.523 74.6833 256.13 73.86C254.8 72.9733 253.786 72.53 253.09 72.53C252.393 72.53 251.633 72.9417 250.81 73.765C250.05 74.5883 249.543 75.3483 249.29 76.045C248.466 77.185 248.055 80.985 248.055 87.445C248.055 93.8417 248.466 97.61 249.29 98.75C249.543 99.3833 250.05 100.143 250.81 101.03C251.633 101.853 252.393 102.265 253.09 102.265C253.786 102.265 254.8 101.853 256.13 101.03C257.523 100.143 258.41 99.3517 258.79 98.655C259.233 97.9583 259.486 94.2533 259.55 87.54C259.55 80.8267 259.328 77.09 258.885 76.33ZM317.659 113H305.119V77.66C305.119 76.5833 304.549 75.475 303.409 74.335C302.269 73.1317 301.288 72.53 300.464 72.53C299.704 72.53 298.438 73.29 296.664 74.81V113H284.124V80.225C284.124 76.995 283.744 74.4933 282.984 72.72C282.224 70.9467 281.021 69.395 279.374 68.065L289.824 60.75C291.914 62.5233 293.466 64.3283 294.479 66.165C298.596 62.4917 301.446 60.655 303.029 60.655C303.979 60.655 305.531 61.3517 307.684 62.745C309.838 64.1383 311.801 65.8167 313.574 67.78C318.578 63.03 322.029 60.655 323.929 60.655C325.893 60.655 328.806 62.4283 332.669 65.975C336.596 69.4583 338.559 72.91 338.559 76.33V94.665C338.559 97.895 338.939 100.397 339.699 102.17C340.459 103.943 341.663 105.495 343.309 106.825L332.859 114.14C328.299 110.53 326.019 105.4 326.019 98.75V77.66C326.019 76.5833 325.449 75.475 324.309 74.335C323.169 73.1317 322.219 72.53 321.459 72.53C320.763 72.53 319.433 73.3217 317.469 74.905C317.596 75.5383 317.659 76.0133 317.659 76.33V113ZM383.126 87.255V90.675H360.136C360.136 94.475 360.611 97.4833 361.561 99.7C361.878 100.46 362.448 101.252 363.271 102.075C364.094 102.835 364.949 103.215 365.836 103.215C366.723 103.215 367.831 102.455 369.161 100.935C370.491 99.415 371.536 97.5783 372.296 95.425L382.081 102.36C380.371 105.527 377.743 108.282 374.196 110.625C370.713 112.968 367.894 114.14 365.741 114.14C363.588 114.14 360.453 112.462 356.336 109.105C352.283 105.748 349.813 103.152 348.926 101.315C348.039 99.415 347.596 94.7917 347.596 87.445C347.596 80.035 348.039 75.4117 348.926 73.575C349.813 71.675 352.283 69.0467 356.336 65.69C360.453 62.3333 363.461 60.655 365.361 60.655C367.261 60.655 370.238 62.3333 374.291 65.69C378.408 69.0467 380.909 71.675 381.796 73.575C382.683 75.4117 383.126 79.9717 383.126 87.255ZM369.921 75.38C369.478 74.4933 368.749 73.6383 367.736 72.815C366.786 71.9917 365.868 71.58 364.981 71.58C364.158 71.58 363.208 72.435 362.131 74.145C361.054 75.7917 360.389 78.2933 360.136 81.65H370.966C370.776 78.2933 370.428 76.2033 369.921 75.38Z" fill="#483E3E"/>
</svg>
