<svg  viewBox="0 0 182 176" fill="none" xmlns="http://www.w3.org/2000/svg">
<path fill-rule="evenodd" clip-rule="evenodd" d="M32.0982 0.242348C14.7232 2.13635 1.38524 16.7793 0.255239 35.2003C-0.337761 44.8713 0.201239 143.574 0.866239 146.855C2.86424 156.728 12.4142 167.954 22.2702 172.018C30.2012 175.288 30.2302 175.289 94.5982 175.144L149.676 175.019L153.361 173.946C166.727 170.053 177.237 159.391 180.095 146.827C180.589 144.653 180.731 141.895 180.731 134.43V124.83L174.383 124.937L168.036 125.044L167.828 134.224C167.63 142.944 167.57 143.521 166.625 145.747C163.452 153.224 156.994 158.815 149.243 160.797C145.182 161.836 37.3702 162.005 32.4892 160.98C24.8772 159.382 17.0742 152.539 14.2292 144.966L13.3482 142.622L13.2452 88.8003C13.1312 28.9973 12.9812 32.6574 15.7772 26.8764C18.5982 21.0424 25.3272 15.4873 31.7082 13.7223C35.2562 12.7413 143.035 12.3343 147.514 13.2853C156.63 15.2213 163.941 21.7904 166.905 30.7084C167.528 32.5854 167.645 34.7323 167.827 47.7003L168.036 62.5443L174.194 62.6524L180.352 62.7593L180.76 61.6863C181.568 59.5613 180.583 29.4743 179.595 26.0913C176.139 14.2583 165.609 4.31835 152.955 0.942345L149.676 0.0683446L92.2542 0.00634811C60.6722 -0.0276519 33.6022 0.0783482 32.0982 0.242348ZM58.6612 29.4793C56.7362 29.8193 55.8602 31.9544 57.1262 33.2194C58.1922 34.2854 85.5122 34.1303 86.5902 33.0523C87.8482 31.7943 87.5802 30.4623 85.8902 29.5723C85.0652 29.1383 61.0582 29.0563 58.6612 29.4793ZM126.731 29.4253C125.605 29.5963 124.481 30.8363 124.481 31.9063C124.481 33.4353 125.703 33.8334 130.398 33.8334C137.534 33.8334 141.967 35.5733 146.456 40.1353C149.104 42.8263 149.96 43.2163 151.46 42.4133C154.525 40.7733 148.579 34.1143 141.328 31.0673C137.739 29.5593 130.911 28.7913 126.731 29.4253ZM37.2092 33.1363L33.0692 36.3453L33.1692 60.5773L33.2702 84.8103L37.6652 84.9203L42.0592 85.0313V57.4793C42.0592 41.2273 41.9142 29.9273 41.7042 29.9273C41.5092 29.9273 39.4862 31.3713 37.2092 33.1363ZM103.094 37.1943L99.0902 40.1423V42.8473V45.5523H97.3332H95.5752V49.6544V53.7553H97.3012H99.0282L99.1642 64.9864C99.3202 77.7124 99.3302 77.7653 102.429 81.0783C104.946 83.7693 107.421 84.6654 112.567 84.7474L116.473 84.8103L116.584 80.6114L116.695 76.4113H113.336C107.313 76.4113 107.294 76.3694 107.294 63.5404V53.7553H111.995H116.696L116.585 49.7514L116.473 45.7474L114.911 45.7283C114.051 45.7183 111.991 45.6743 110.331 45.6303L107.314 45.5523L107.206 39.8993L107.098 34.2463L103.094 37.1943ZM47.2312 65.1813L47.3332 84.8103L51.3362 84.9213L55.3402 85.0323V69.3943V53.7553H56.9412C62.3022 53.7553 62.5302 54.4284 62.7622 70.9434L62.9582 84.8103L66.9032 84.9203L70.8492 85.0313L71.1082 72.2253C71.5852 48.6334 69.4152 45.5873 52.1142 45.5603L47.1302 45.5523L47.2312 65.1813ZM85.0282 45.9073C70.3312 46.8663 68.0052 65.5104 82.1662 68.8484C85.9772 69.7474 87.3722 70.8263 87.3722 72.8773C87.3722 75.8043 86.3612 76.2733 79.3442 76.6013L73.2832 76.8853L73.3942 80.8484L73.5042 84.8103L79.9502 84.7633C91.0252 84.6833 95.5552 81.5273 95.7152 73.7803C95.8502 67.2903 92.8552 63.6013 86.0002 61.8113C82.2342 60.8283 80.6172 58.9443 81.2782 56.3113C81.8502 54.0323 82.5972 53.7553 88.1672 53.7553H93.2582L93.1472 49.7514L93.0362 45.7474L90.8872 45.7064C89.7062 45.6834 87.0692 45.7733 85.0282 45.9073ZM119.187 45.9053C119.097 45.9913 119.943 47.7923 121.068 49.9073L123.114 53.7514L128.693 53.7533C134.891 53.7553 136.349 54.1153 137.666 55.9643C139.419 58.4263 139.332 58.4773 133.27 58.5623C123.24 58.7013 118.817 62.5513 118.818 71.1383C118.82 81.6793 128.627 88.1193 136.053 82.4553C137.73 81.1773 138.544 81.5173 138.544 83.4983V85.0323L142.723 84.9213L146.902 84.8103L146.922 70.3573L146.942 55.9044L145.873 53.7263C143.656 49.2133 140.108 46.5974 135.294 45.9284C132.563 45.5484 119.58 45.5293 119.187 45.9053ZM138.544 70.9434V75.6303H133.689C128.254 75.6303 127.552 75.2813 126.992 72.2963C126.223 68.1983 128.566 66.2553 134.277 66.2553H138.544V70.9434ZM158.341 80.1824C158.195 80.3284 158.075 81.4603 158.075 82.6983V84.9483L160.172 85.9083C166.003 88.5773 167.602 91.6123 167.776 100.337L167.906 106.88H174.1C177.507 106.88 180.377 106.746 180.478 106.583C180.579 106.419 180.721 100.399 180.794 93.2043L180.926 80.1224L169.767 80.0193C163.629 79.9623 158.488 80.0354 158.341 80.1824ZM40.9932 92.0704C35.7732 93.7244 30.7112 98.6763 29.0222 103.78C24.4652 117.552 35.3882 131.894 46.3562 126.539L48.8952 125.299L49.0142 126.809C49.6942 135.431 39.1152 138.722 31.6862 132.2C30.4002 131.07 30.1922 131.005 29.4262 131.496C28.9622 131.793 27.6602 132.541 26.5322 133.159C24.0822 134.501 24.0912 134.442 25.9772 136.826C34.3572 147.419 49.7732 146.569 55.3682 135.204C56.9562 131.978 57.1362 129.417 57.2522 108.345L57.3472 91.2553L50.3872 91.2774C44.5812 91.2954 43.0232 91.4274 40.9932 92.0704ZM60.3842 93.0903C60.7982 94.1223 61.5262 95.8893 62.0012 97.0173L62.8662 99.0684H68.6862C75.0822 99.0684 76.4962 99.3974 77.9312 101.221C79.7222 103.499 79.4202 103.654 72.8212 103.838C64.1242 104.082 61.3572 105.686 59.8172 111.377C56.7542 122.691 66.2732 131.73 75.4392 126.211C78.0942 124.612 78.7782 124.679 78.7782 126.541V127.867L82.5402 128.143C84.7932 128.308 86.4502 128.27 86.6732 128.048C86.8982 127.822 86.9932 122.402 86.9152 114.251L86.7862 100.825L85.7622 98.6433C82.9652 92.6783 80.1562 91.4873 68.5222 91.3323L59.6332 91.2143L60.3842 93.0903ZM90.5692 109.686L90.6922 128.169L94.6962 128.295L98.7002 128.42L98.7012 115.404C98.7032 99.9384 99.1652 98.3184 103.144 99.8314C105.441 100.704 105.518 101.162 105.731 115.261L105.926 128.169H109.833H113.739L113.934 114.994L114.129 101.819L115.18 100.769C116.582 99.3673 118.317 99.3673 119.72 100.769L120.77 101.819L120.887 114.871L121.004 127.923L124.925 128.046C127.082 128.114 128.919 128.096 129.007 128.006C129.552 127.456 129.127 100.648 128.547 98.9443C125.968 91.3763 116.304 88.8453 110.566 94.2353L109.347 95.3813L107.9 94.1293C105.066 91.6803 104.221 91.4623 97.0142 91.3273L90.4462 91.2033L90.5692 109.686ZM142.459 91.8583C135.115 93.9113 131.122 100.032 131.122 109.234C131.122 123.752 137.497 128.876 154.559 128.067C159.286 127.843 159.258 127.856 157.914 126.433C157.396 125.884 156.085 124.14 155.001 122.557L153.029 119.679L148.618 119.735C143.567 119.799 142.095 119.311 140.602 117.076C139.297 115.123 139.361 115.083 143.752 115.083H147.79L151.077 113.066C152.885 111.956 155.726 110.268 157.391 109.313C160.816 107.35 160.887 107.166 159.88 102.886C158.014 94.9563 149.855 89.7913 142.459 91.8583ZM49.0002 108.345L48.8952 117.232L46.7742 118.306C41.1512 121.154 36.2172 117.458 36.2172 110.396C36.2172 104.231 40.8242 99.5933 47.0472 99.4923L49.1052 99.4584L49.0002 108.345ZM148.543 100.203C149.424 100.602 150.552 101.502 151.05 102.202L151.955 103.473L150.621 104.57C146.525 107.936 138.94 109.087 139.523 106.253C139.629 105.739 139.806 104.881 139.916 104.348C140.651 100.803 145.128 98.6523 148.543 100.203ZM78.6932 115.181L78.8042 119.38H74.1252C68.2972 119.38 67.3002 118.828 67.3002 115.603C67.3002 111.77 68.8302 110.766 74.4812 110.891L78.5832 110.982L78.6932 115.181ZM75.0042 143.188C73.8262 143.691 73.5002 144.994 74.2622 146.157L74.8902 147.115H91.2262C106.557 147.115 107.603 147.071 108.21 146.4C109.069 145.45 109.029 144.155 108.12 143.518C107.229 142.895 76.4102 142.587 75.0042 143.188ZM124.95 143.677C124.259 144.367 124.379 145.73 125.195 146.468C125.813 147.027 127.042 147.115 134.314 147.115C143.374 147.115 144.012 146.97 144.012 144.916C144.012 143.304 143.464 143.208 134.247 143.208C127.901 143.208 125.287 143.34 124.95 143.677Z" fill="white"/>
</svg>
